<?xml version="1.0" standalone="no"?>
<!DOCTYPE svg PUBLIC "-//W3C//DTD SVG 20010904//EN"
 "http://www.w3.org/TR/2001/REC-SVG-20010904/DTD/svg10.dtd">
<svg version="1.0" xmlns="http://www.w3.org/2000/svg"
 width="433.000000pt" height="188.000000pt" viewBox="0 0 433.000000 188.000000"
 preserveAspectRatio="xMidYMid meet">

<g transform="translate(0.000000,188.000000) scale(0.100000,-0.100000)"
fill="#000000" stroke="none">
<path d="M1724 1653 c-235 -330 -524 -577 -784 -669 -75 -27 -53 -31 50 -9
225 47 475 213 700 463 45 50 86 92 89 92 3 0 12 -9 18 -19 28 -45 167 -191
239 -252 206 -174 415 -279 586 -293 l63 -6 -48 14 c-68 20 -190 80 -269 132
-179 118 -405 345 -548 552 -23 34 -44 62 -46 62 -1 0 -24 -30 -50 -67z"/>
<path d="M2493 1639 c-64 -89 -245 -299 -269 -312 -22 -13 -16 -34 16 -57 22
-15 34 -18 47 -11 18 9 167 161 232 235 l34 39 45 -54 c219 -261 503 -455 736
-504 104 -21 149 -19 71 4 -83 24 -204 87 -310 162 -155 110 -411 382 -526
558 l-15 24 -61 -84z"/>
<path d="M80 400 c0 -180 2 -210 15 -210 12 0 15 14 15 68 0 65 1 69 38 105
21 20 43 37 49 37 7 0 47 -47 90 -105 43 -58 84 -105 91 -105 17 0 15 3 -80
127 -43 57 -78 106 -78 109 0 4 36 47 81 96 83 91 94 126 13 41 -25 -27 -80
-83 -122 -127 l-77 -79 -3 127 c-2 103 -5 126 -17 126 -13 0 -15 -32 -15 -210z"/>
<path d="M654 573 c-9 -21 -22 -54 -29 -73 -7 -19 -22 -55 -33 -80 -35 -77
-92 -216 -92 -223 0 -4 6 -7 13 -7 6 0 23 28 36 63 13 34 29 65 35 69 19 13
181 9 198 -4 8 -7 26 -39 38 -70 13 -32 30 -58 37 -58 9 0 8 13 -8 53 -28 73
-87 213 -113 272 -13 28 -26 60 -30 73 -11 33 -34 27 -52 -15z m92 -137 c18
-44 31 -84 28 -88 -8 -12 -172 -10 -179 2 -6 10 37 126 72 194 l15 30 16 -30
c9 -16 30 -65 48 -108z"/>
<path d="M1020 400 c0 -180 2 -210 15 -210 13 0 15 30 15 210 0 180 -2 210
-15 210 -13 0 -15 -30 -15 -210z"/>
<path d="M1450 400 c0 -180 2 -210 15 -210 13 0 15 26 15 175 0 96 3 175 8
175 8 0 15 -11 54 -80 80 -142 106 -184 115 -187 6 -2 39 47 73 109 71 126 94
160 104 151 3 -3 6 -82 6 -175 0 -131 3 -169 13 -165 9 3 12 53 12 208 0 247
-5 254 -80 122 -89 -158 -116 -198 -128 -198 -6 0 -48 64 -92 142 -113 201
-115 199 -115 -67z"/>
<path d="M2180 599 c0 -5 -12 -36 -26 -67 -15 -31 -32 -73 -39 -92 -7 -19 -34
-84 -59 -143 -35 -82 -42 -108 -30 -105 9 2 27 30 41 63 14 33 30 63 37 67 6
4 49 8 96 8 47 0 90 -4 97 -8 6 -4 22 -34 35 -67 14 -34 31 -61 40 -63 13 -2
5 24 -33 115 -28 65 -61 146 -74 179 -34 89 -54 124 -70 124 -8 0 -15 -5 -15
-11z m38 -56 c6 -16 25 -61 42 -102 17 -41 28 -81 26 -88 -4 -10 -26 -13 -88
-11 -83 3 -83 3 -81 29 2 31 73 199 84 199 4 0 12 -12 17 -27z"/>
<path d="M2440 600 c0 -5 35 -10 78 -12 l77 -3 3 -197 c2 -166 5 -198 17 -198
12 0 15 32 17 198 l3 197 73 3 c39 2 72 7 72 12 0 6 -69 10 -170 10 -102 0
-170 -4 -170 -10z"/>
<path d="M2989 590 c-141 -75 -144 -296 -5 -381 34 -20 126 -26 168 -10 35 13
96 73 80 79 -8 2 -26 -7 -40 -21 -39 -36 -66 -47 -114 -47 -52 0 -95 25 -134
75 -40 52 -46 144 -14 210 26 54 88 95 144 95 41 0 110 -31 124 -56 5 -10 14
-14 21 -9 15 9 -20 50 -61 71 -39 20 -126 17 -169 -6z"/>
<path d="M3390 400 c0 -180 2 -210 15 -210 12 0 15 18 15 99 l0 98 68 6 c90 9
174 8 189 -1 8 -5 13 -42 15 -102 2 -64 7 -95 16 -98 9 -3 12 43 12 208 0 165
-3 211 -12 208 -9 -3 -15 -36 -18 -99 l-5 -94 -110 -3 c-163 -4 -155 -10 -155
103 0 78 -3 95 -15 95 -13 0 -15 -30 -15 -210z"/>
<path d="M3960 413 c-45 -109 -84 -204 -87 -210 -3 -7 1 -13 10 -13 8 0 22 20
32 47 34 94 33 93 140 93 106 0 104 2 141 -92 11 -27 25 -48 32 -48 17 0 16 2
-18 80 -16 38 -30 71 -30 74 0 3 -13 35 -30 71 -16 36 -30 68 -30 71 0 20 -55
124 -65 124 -7 0 -49 -89 -95 -197z m150 44 c22 -54 38 -102 35 -108 -7 -11
-172 -12 -179 -1 -11 18 81 229 95 215 4 -4 26 -52 49 -106z"/>
</g>
</svg>
